{"title":"Aakrosh - (2010) PDVDRip Xvid [Team DAYN Exclusive]","uid":5889202,"size":1011709843,"categoryP":"video","categoryS":"movies","magnet":"?xt=urn:btih:eec6a5689f87388954a97116f5efc0a426ce5070&amp;dn=Aakrosh+-+%282010%29+PDVDRip+Xvid+%5BTeam+DAYN+Exclusive%5D&amp;tr=udp%3A%2F%2Ftracker.openbittorrent.com%3A80&amp;tr=udp%3A%2F%2Fopen.demonii.com%3A1337&amp;tr=udp%3A%2F%2Ftracker.coppersurfer.tk%3A6969&amp;tr=udp%3A%2F%2Fexodus.desync.com%3A6969","seeders":0,"leechers":0,"uploader":"the.count","files":-1,"time":1287169910,"description":"_________________________________________________________________________________\n\nDescription:\n-----------\n\nGeneral\nFormat                           : MPEG-PS\nFile size                        : 965 MiB\nDuration                         : 2h 14mn\nOverall bit rate                 : 1 005 Kbps\n\nVideo\nID                               : 224 (0xE0)\nFormat                           : MPEG Video\nFormat version                   : Version 2\nFormat profile                   : Main@Main\nFormat settings, BVOP            : Yes\nFormat settings, Matrix          : Default\nFormat settings, GOP             : M=3, N=12\nDuration                         : 2h 14mn\nBit rate mode                    : Variable\nBit rate                         : 857 Kbps\nWidth                            : 352 pixels\nHeight                           : 288 pixels\nDisplay aspect ratio             : 1.222\nFrame rate                       : 29.970 fps\nStandard                         : PAL\nColor space                      : YUV\nChroma subsampling               : 4:2:0\nBit depth                        : 8 bits\nScan type                        : Progressive\nBits/(Pixel*Frame)               : 0.282\nStream size                      : 823 MiB (85%)\n\nAudio\nID                               : 192 (0xC0)\nFormat                           : MPEG Audio\nFormat version                   : Version 1\nFormat profile                   : Layer 2\nDuration                         : 2h 14mn\nBit rate mode                    : Constant\nBit rate                         : 128 Kbps\nChannel(s)                       : 2 channels\nSampling rate                    : 44.1 KHz\nStream size                      : 123 MiB (13%)\n\n_________________________________________________________________________________\n\nScreenshots:\n-----------\n &lt;a href=&quot;\nhttp://img819.imageshack.us/img819/48/vlcsnap232393.png&quot; rel=&quot;nofollow&quot; target=&quot;_NEW&quot;&gt;\nhttp://img819.imageshack.us/img819/48/vlcsnap232393.png&lt;/a&gt;\n &lt;a href=&quot;\nhttp://img209.imageshack.us/img209/5185/vlcsnap232668.png&quot; rel=&quot;nofollow&quot; target=&quot;_NEW&quot;&gt;\nhttp://img209.imageshack.us/img209/5185/vlcsnap232668.png&lt;/a&gt;\n &lt;a href=&quot;\nhttp://img180.imageshack.us/img180/2739/vlcsnap232877.png&quot; rel=&quot;nofollow&quot; target=&quot;_NEW&quot;&gt;\nhttp://img180.imageshack.us/img180/2739/vlcsnap232877.png&lt;/a&gt;\n &lt;a href=&quot;\nhttp://img153.imageshack.us/img153/3742/vlcsnap232947.png&quot; rel=&quot;nofollow&quot; target=&quot;_NEW&quot;&gt;\nhttp://img153.imageshack.us/img153/3742/vlcsnap232947.png&lt;/a&gt;\n\n_________________________________________________________________________________\n\n\nUL by =ThE.CounT=","torrent":{"xt":"urn:btih:eec6a5689f87388954a97116f5efc0a426ce5070","amp;dn":"Aakrosh+-+%282010%29+PDVDRip+Xvid+%5BTeam+DAYN+Exclusive%5D","amp;tr":["udp%3A%2F%2Ftracker.openbittorrent.com%3A80","udp%3A%2F%2Fopen.demonii.com%3A1337","udp%3A%2F%2Ftracker.coppersurfer.tk%3A6969","udp%3A%2F%2Fexodus.desync.com%3A6969"],"infoHash":"eec6a5689f87388954a97116f5efc0a426ce5070","infoHashBuffer":{"type":"Buffer","data":[238,198,165,104,159,135,56,137,84,169,113,22,245,239,192,164,38,206,80,112]},"announce":[],"urlList":[]}}